<?xml version="1.0" standalone="no"?>
<!DOCTYPE svg PUBLIC "-//W3C//DTD SVG 20010904//EN"
 "http://www.w3.org/TR/2001/REC-SVG-20010904/DTD/svg10.dtd">
<svg version="1.0" xmlns="http://www.w3.org/2000/svg"
 width="560.000000pt" height="560.000000pt" viewBox="0 0 560.000000 560.000000"
 preserveAspectRatio="xMidYMid meet">
<metadata>
Created by potrace 1.14, written by Peter Selinger 2001-2017
</metadata>
<g transform="translate(0.000000,560.000000) scale(0.100000,-0.100000)"
fill="#000000" stroke="none">
<path d="M2657 5564 c-3 -3 -43 -7 -89 -9 -95 -4 -230 -40 -305 -81 -80 -45
-86 -48 -104 -64 -10 -8 -38 -31 -62 -50 -54 -44 -126 -131 -158 -190 -13 -25
-27 -47 -30 -50 -7 -7 -21 -41 -26 -64 -2 -11 -8 -25 -14 -33 -6 -7 -8 -13 -4
-13 4 0 3 -6 -3 -13 -6 -7 -14 -28 -17 -47 -8 -47 -7 -46 -77 -59 -35 -7 -97
-22 -138 -33 -41 -11 -82 -21 -90 -23 -30 -6 -241 -76 -277 -92 -21 -9 -40
-17 -43 -18 -11 -1 -146 -59 -156 -67 -6 -4 -44 -24 -85 -45 -74 -36 -214
-124 -256 -159 -12 -11 -36 -30 -53 -43 -38 -29 -136 -130 -158 -163 -9 -13
-19 -25 -22 -28 -11 -9 -66 -105 -83 -145 -47 -113 -56 -268 -22 -390 22 -82
97 -206 172 -285 34 -35 40 -58 24 -88 -6 -9 -22 -51 -36 -92 -15 -41 -29 -82
-32 -90 -7 -16 -11 -31 -17 -57 -3 -10 -5 -18 -7 -18 -1 0 -3 -9 -5 -20 -1
-11 -12 -56 -22 -100 -20 -78 -23 -98 -41 -220 -12 -78 -11 -68 -16 -225 -2
-74 -5 -137 -6 -140 -1 -3 -1 -9 0 -14 1 -5 4 -45 6 -90 2 -44 7 -103 11 -131
4 -27 7 -60 8 -72 0 -13 3 -23 6 -23 3 0 6 -8 6 -17 1 -18 11 -85 17 -113 22
-92 41 -162 73 -260 14 -41 29 -84 34 -95 5 -11 27 -63 50 -115 38 -84 56
-121 120 -235 14 -25 42 -69 125 -193 24 -36 155 -195 205 -247 135 -144 295
-272 516 -412 41 -27 283 -143 344 -166 36 -13 74 -28 85 -32 11 -5 22 -9 25
-10 10 -2 126 -37 150 -45 36 -12 121 -30 153 -32 15 -1 27 -5 27 -9 0 -4 8
-6 17 -5 10 2 33 -1 53 -5 77 -18 174 -24 370 -24 195 0 273 5 375 24 25 5 45
6 45 3 0 -2 6 1 13 7 8 6 16 8 19 5 3 -3 26 0 49 6 24 7 52 14 62 16 106 20
488 160 533 195 6 5 37 23 70 40 32 18 99 58 148 90 49 33 93 59 98 59 4 0 8
4 8 8 0 4 23 25 51 46 65 48 81 62 136 113 24 24 46 43 48 43 4 0 53 52 140
147 41 44 62 69 93 112 9 13 25 32 35 42 9 11 17 22 17 27 1 4 14 23 30 42 17
19 30 40 30 46 0 7 4 14 9 16 16 6 179 301 187 338 0 3 9 23 19 45 10 22 20
45 21 50 2 6 16 47 33 93 32 88 86 298 96 372 9 64 16 109 21 134 3 17 16 255
16 291 -2 76 -14 237 -23 296 -6 40 -12 83 -13 94 -1 11 -6 34 -9 50 -4 17 -9
39 -11 50 -3 11 -9 40 -15 65 -7 25 -14 54 -16 65 -8 35 -63 198 -88 260 -17
44 -21 64 -13 71 21 21 81 92 93 110 68 103 104 181 120 254 12 58 8 212 -6
265 -22 79 -99 223 -146 271 -5 6 -28 31 -50 55 -23 24 -66 64 -95 89 -30 25
-57 47 -60 50 -11 12 -129 90 -135 90 -3 0 -26 14 -51 30 -24 17 -44 28 -44
24 0 -4 -8 0 -17 8 -21 17 -228 113 -268 124 -5 1 -48 16 -94 34 -73 27 -282
89 -351 104 -14 3 -48 11 -77 17 -50 11 -52 13 -59 52 -19 116 -102 265 -204
367 -95 96 -108 105 -204 159 -41 24 -136 59 -194 72 -49 11 -218 22 -282 18
-15 -1 -94 0 -174 1 -22 1 -43 3 -46 5 -4 3 -10 2 -13 -1z"/>
</g>
</svg>
